<svg version="1.0" xmlns="http://www.w3.org/2000/svg" width="666.667" height="666.667" viewBox="0 0 500 500"><path d="M138.5 59.6c-36.8 6.5-67.3 34.7-77.7 71.9-2.2 7.9-2.3 8.7-2.6 86.5-.2 55 .1 80.5.8 85.2 1.7 9.6 7.5 21.2 14.8 28.9 25.3 27 68.4 24.3 89.7-5.5 10.8-15.2 11.5-19.7 11.5-74.9 0-48.9.2-51 6.6-64.2 8.7-18.2 26.5-31.9 46.6-35.9 11.3-2.3 88.4-2.3 99.6 0 25 5 44.9 24.1 51.3 49.2 1.8 7 1.9 11.4 1.9 61.2 0 50.3-.1 54.2-2 61.6-3.2 12.8-8.3 21.7-17.5 30.9-9.2 9.3-18.2 14.5-30.1 17.5-10.8 2.8-36.9 2.9-42.9.1-20.1-9.2-17.1-39.1 4.5-44 2.5-.6 5.9-1.1 7.6-1.1 5 0 13.1-4.7 16.4-9.5 8.2-11.9 4.8-26.8-7.7-34.2l-4.8-2.8h-28c-30.9 0-32.7.3-40.9 6.7-5.7 4.4-8.5 8-11.2 14.6-2.3 5.7-2.4 5.9-2.4 49.7 0 47.9.2 49.7 5.7 61.3 4.2 8.6 15.9 20 25.3 24.5 4.1 1.9 9.9 4 12.8 4.6 8.5 1.8 84.8 1.5 95.3-.4 35.9-6.3 64.9-30.9 76.6-65 5.3-15.6 5.3-15.7 5.3-126s0-110.4-5.3-126c-9.8-28.7-32.5-51.4-61.2-61.2-15.6-5.3-15.6-5.3-126.9-5.2-83.9.1-104.6.3-111.1 1.5z"/></svg>